# xmcd
#
# Track frame offsets:
#	225
#	21982
#	40666
#	53009
#	70031
#	84526
#	107708
#	120790
#	132477
#	145115
#	156137
#	173311
#	188450
#	198463
#
# Disc length: 2870 seconds
#
# Revision: 3
# Processed by: cddbd v1.5.1PL0 Copyright (c) Steve Scherf et al.
# Submitted via: MusicWizard 7.2.0
#
DISCID=ab0b330e
DTITLE=Hill, Jonny - Jonny Hill CD 1
DYEAR=1900
DGENRE=Country
TTITLE0=Ruf Teddybär Eins-Vier
TTITLE1=Silvia's Mutter
TTITLE2=Der Zug, Der Heimwärts Geht
TTITLE3=Rosen Für Mama
TTITLE4=Vielleicht Bist Du Auch So Allein
TTITLE5=Tommy Und Strolch
TTITLE6=Ich Hab' Dich Heut Nacht So Sehr Vermisst
TTITLE7=Ich Komm' Nicht Los Von Dir
TTITLE8=Freunde
TTITLE9=Die Arbeit Hört Nie Auf
TTITLE10=Weit, Weit, Ist Es Nach Lüdenscheidt
TTITLE11=Am Besten Etwas Mehr Als Alles
TTITLE12=Komm In Meine Welt
TTITLE13=Addio, Santa Lucia
EXTD=
EXTT0=
EXTT1=
EXTT2=
EXTT3=
EXTT4=
EXTT5=
EXTT6=
EXTT7=
EXTT8=
EXTT9=
EXTT10=
EXTT11=
EXTT12=
EXTT13=
PLAYORDER=
